<?xml version="1.0" encoding="utf-8"?>
<!-- Generator: Adobe Illustrator 24.0.2, SVG Export Plug-In . SVG Version: 6.00 Build 0)  -->
<svg version="1.1" id="Ebene_1" xmlns="http://www.w3.org/2000/svg" xmlns:xlink="http://www.w3.org/1999/xlink" x="0px" y="0px"
	 viewBox="0 0 1024 1024" style="enable-background:new 0 0 1024 1024;" xml:space="preserve">
<style type="text/css">
	.st0{fill:url(#SVGID_1_);}
	.st1{fill:#ED701B;}
</style>
<g>
	<g>
		<g>
			<g>
				<linearGradient id="SVGID_1_" gradientUnits="userSpaceOnUse" x1="0" y1="512" x2="1024" y2="512">
					<stop  offset="0" style="stop-color:#E95338"/>
					<stop  offset="1" style="stop-color:#DD2476"/>
				</linearGradient>
				<path class="st0" d="M658.3,0H365.7C163.7,0,0,163.8,0,365.7v292.6c0,202,163.7,365.7,365.7,365.7h292.5
					c202,0,365.7-163.7,365.7-365.7V365.7C1024,163.8,860.3,0,658.3,0z M722.9,782.6H301.1c-24.9,0-45.1-20.2-45.1-45.1
					s20.2-45.1,45.1-45.1h421.8c24.9,0,45.1,20.2,45.1,45.1S747.8,782.6,722.9,782.6z M256,512c0-24.9,20.2-45.1,45.1-45.1h260.7
					c24.9,0,45.1,20.2,45.1,45.1c0,24.9-20.2,45.1-45.1,45.1H301.1C276.2,557.1,256,536.9,256,512z M722.9,331.6H301.1
					c-24.9,0-45.1-20.2-45.1-45.1c0-24.9,20.2-45.1,45.1-45.1h421.8c24.9,0,45.1,20.2,45.1,45.1C768,311.4,747.8,331.6,722.9,331.6z
					"/>
			</g>
		</g>
	</g>
	<g>
		<g>
			<g>
				<path class="st1" d="M658.3,0H365.7C163.7,0,0,163.8,0,365.7v292.6c0,202,163.7,365.7,365.7,365.7h292.5
					c202,0,365.7-163.7,365.7-365.7V365.7C1024,163.8,860.3,0,658.3,0z M722.9,782.6H301.1c-24.9,0-45.1-20.2-45.1-45.1
					s20.2-45.1,45.1-45.1h421.8c24.9,0,45.1,20.2,45.1,45.1S747.8,782.6,722.9,782.6z M256,512c0-24.9,20.2-45.1,45.1-45.1h260.7
					c24.9,0,45.1,20.2,45.1,45.1c0,24.9-20.2,45.1-45.1,45.1H301.1C276.2,557.1,256,536.9,256,512z M722.9,331.6H301.1
					c-24.9,0-45.1-20.2-45.1-45.1c0-24.9,20.2-45.1,45.1-45.1h421.8c24.9,0,45.1,20.2,45.1,45.1C768,311.4,747.8,331.6,722.9,331.6z
					"/>
			</g>
			<g>
				<path class="st1" d="M658.3,0H365.7C163.7,0,0,163.8,0,365.7v292.6c0,202,163.7,365.7,365.7,365.7h292.5
					c202,0,365.7-163.7,365.7-365.7V365.7C1024,163.8,860.3,0,658.3,0z M722.9,782.6H301.1c-24.9,0-45.1-20.2-45.1-45.1
					s20.2-45.1,45.1-45.1h421.8c24.9,0,45.1,20.2,45.1,45.1S747.8,782.6,722.9,782.6z M256,512c0-24.9,20.2-45.1,45.1-45.1h260.7
					c24.9,0,45.1,20.2,45.1,45.1c0,24.9-20.2,45.1-45.1,45.1H301.1C276.2,557.1,256,536.9,256,512z M722.9,331.6H301.1
					c-24.9,0-45.1-20.2-45.1-45.1c0-24.9,20.2-45.1,45.1-45.1h421.8c24.9,0,45.1,20.2,45.1,45.1C768,311.4,747.8,331.6,722.9,331.6z
					"/>
			</g>
		</g>
	</g>
</g>
</svg>
